<svg xmlns="http://www.w3.org/2000/svg" xml:space="preserve" width="2.66666in" height="2.66666in" version="1.1" style="shape-rendering:geometricPrecision; text-rendering:geometricPrecision; image-rendering:optimizeQuality; fill-rule:evenodd; clip-rule:evenodd" viewBox="0 0 2666.66 2666.66" xmlns:xlink="http://www.w3.org/1999/xlink" xmlns:xodm="http://www.corel.com/coreldraw/odm/2003">
 <defs>
  <style type="text/css">
   
    .fil0 {fill:#8D9A89}
    .fil1 {fill:white}
    .fil2 {fill:#015C55;fill-rule:nonzero}
   
  </style>
 </defs>
 <g id="Layer_x0020_1">
  <metadata id="CorelCorpID_0Corel-Layer"></metadata>
  <circle class="fil0" cx="1333.33" cy="1333.33" r="1333.33" id="id_101" style="fill: rgb(22, 85, 143);"></circle>
  <path class="fil1" d="M1301.04 2023.05c-352.79,-16.31 -637.26,-298.47 -657.27,-650.3l-128.02 0c-47.37,0 -47.37,-71.94 0,-71.94l127.64 0c16.32,-352.79 298.47,-637.26 650.3,-657.27l0 -128.02c0,-47.4 71.94,-47.31 71.94,0l0 127.64c352.79,16.32 637.26,298.47 657.27,650.3l128.02 0c47.37,0 47.38,71.94 0,71.94l-127.64 0c-16.31,352.79 -298.47,637.26 -650.3,657.27l0 128.02c0,19.79 -16.19,35.98 -35.97,35.98 -19.86,0 -35.97,-16.13 -35.97,-35.98l0 -127.64zm-255.77 -843.11l0 86.66 132.58 0 0 -86.67 -132.58 0zm-16.35 287.52l246.91 0c25.83,0 25.83,39.24 0,39.24l-246.91 0c-25.83,0 -25.83,-39.24 0,-39.24zm-57.23 -363.96l0 491.5c0,15.94 12.94,28.76 28.75,28.76l665.65 -0c15.94,0 28.75,-12.94 28.75,-28.76l0 -491.5 -279.62 0 0 150.84c0,10.94 -8.96,19.62 -19.76,19.62 -12.2,0 -46.32,-30.94 -62,-43.19l-50.41 39.11c-12.97,10.04 -31.48,0.86 -31.48,-15.54l0 -150.84 -279.89 0zm57.23 443.95l185.18 0c25.83,0 25.83,39.24 0,39.24l-185.18 0c-25.83,0 -25.83,-39.24 0,-39.24zm361.91 -79.99l246.91 0c25.8,0 25.8,39.24 0,39.24l-246.91 0c-25.8,0 -25.8,-39.24 0,-39.24zm-193.36 -161.61l-171.83 0c-10.9,0 -19.62,-8.72 -19.62,-19.62l0 -125.91c0,-10.9 8.72,-19.62 19.62,-19.62l171.83 0c10.9,0 19.62,8.72 19.62,19.62l0 125.91c0,10.76 -8.72,19.62 -19.62,19.62zm252.09 -19.62l0 -125.91c0,-10.9 8.85,-19.62 19.62,-19.62l171.83 0c10.77,0 19.62,8.72 19.62,19.62l0 125.91c0,10.76 -8.85,19.62 -19.62,19.62l-171.83 0c-10.77,0 -19.62,-8.72 -19.62,-19.62zm3 261.22l185.18 0c25.8,0 25.8,39.24 0,39.24l-185.18 0c-25.8,0 -25.8,-39.24 0,-39.24zm36.25 -367.5l0 86.66 132.58 0 0 -86.67 -132.58 0zm-197.99 -76.44l0 110.78c48.36,-37.45 37.39,-37.5 85.16,-0.27l0 -110.51 -85.16 0zm-19.62 -39.24l399.39 0 -19.76 -46.46 -634.99 0 -19.62 46.46 274.98 0zm58.46 -187.23c-19.93,0 -35.97,-16.05 -35.97,-35.97l0 -125.43c-312.11,19.84 -562.11,272.12 -578.3,585.19l125.89 0c47.37,0 47.37,71.94 0,71.94l-125.43 0c19.84,312.1 272.11,562.12 585.18,578.3l0 -125.89c0,-47.41 71.94,-47.31 71.94,0l0 125.43c312.1,-19.84 562.12,-272.12 578.3,-585.19l-125.89 0c-47.37,0 -47.37,-71.94 0,-71.94l125.43 0c-19.84,-312.11 -272.11,-562.11 -585.18,-578.29l0 125.9c0,19.92 -16.05,35.97 -35.97,35.97z" id="id_102"></path>
  <path class="fil2" d="M1277.7 2012.7c-175.47,-9.72 -333.85,-84.57 -451.26,-200.74 -117.54,-116.3 -194.04,-274 -205.58,-449.2l-121.78 0c-20.21,0 -33.2,-11.17 -38.92,-25.45 -2.19,-5.46 -3.28,-11.35 -3.28,-17.19 0,-5.83 1.09,-11.72 3.28,-17.19 5.72,-14.29 18.7,-25.46 38.92,-25.46l121.33 0c9.72,-175.47 84.58,-333.85 200.75,-451.26 116.3,-117.54 274,-194.04 449.19,-205.58l0 -121.78c0,-20.21 11.16,-33.2 25.44,-38.91l0.02 0c5.42,-2.17 11.3,-3.25 17.16,-3.25l0 -0.03c5.83,0 11.72,1.1 17.19,3.28 14.3,5.72 25.47,18.7 25.47,38.9l0 121.33c175.47,9.72 333.85,84.58 451.26,200.75 117.54,116.3 194.04,274 205.58,449.19l121.78 0c20.21,0 33.2,11.17 38.92,25.45 2.19,5.46 3.28,11.35 3.28,17.19 0,5.83 -1.09,11.72 -3.28,17.19 -5.71,14.29 -18.7,25.45 -38.92,25.45l-121.33 0c-9.72,175.47 -84.58,333.85 -200.75,451.26 -116.29,117.54 -274,194.04 -449.19,205.58l0 121.78c0,11.73 -4.8,22.4 -12.52,30.12 -7.72,7.72 -18.39,12.52 -30.12,12.52 -11.76,0 -22.43,-4.78 -30.14,-12.5l0 -0.02c-7.72,-7.72 -12.5,-18.38 -12.5,-30.13l0 -121.33zm-441.88 -210.17c116.56,115.32 274.26,189.15 448.84,197.22l6.38 0.29 0 6.35 0 127.64c0,8.1 3.28,15.43 8.57,20.74l0.01 -0.01c5.3,5.3 12.63,8.58 20.72,8.58 8.06,0 15.38,-3.3 20.69,-8.61 5.31,-5.31 8.61,-12.64 8.61,-20.7l0 -128.02 0 -6.28 6.3 -0.36c174.3,-9.91 331.35,-85.38 446.8,-202.07 115.32,-116.56 189.15,-274.26 197.22,-448.84l0.29 -6.38 6.35 0 127.64 0c13.89,0 22.74,-7.49 26.57,-17.06 1.52,-3.81 2.29,-8.01 2.29,-12.24 0,-4.23 -0.76,-8.43 -2.29,-12.24 -3.83,-9.57 -12.69,-17.06 -26.57,-17.06l-128.02 0 -6.28 0 -0.36 -6.3c-9.91,-174.3 -85.38,-331.35 -202.07,-446.8 -116.55,-115.31 -274.26,-189.15 -448.84,-197.22l-6.38 -0.29 0 -6.35 0 -127.64c0,-13.87 -7.49,-22.72 -17.07,-26.56 -3.81,-1.52 -8.01,-2.29 -12.24,-2.29l0 -0.03c-4.19,0 -8.39,0.77 -12.24,2.3l0 0.01c-9.56,3.83 -17.04,12.67 -17.04,26.56l0 128.02 0 6.28 -6.3 0.36c-174.3,9.91 -331.35,85.38 -446.8,202.07 -115.31,116.55 -189.15,274.26 -197.22,448.84l-0.29 6.38 -6.35 0 -127.64 0c-13.89,0 -22.74,7.49 -26.57,17.06 -1.52,3.81 -2.29,8.01 -2.29,12.24 0,4.23 0.77,8.43 2.29,12.24 3.83,9.57 12.68,17.06 26.57,17.06l128.02 0 6.28 0 0.36 6.3c9.91,174.3 85.38,331.35 202.07,446.81zm199.45 -632.61l0 73.35 119.24 0 0 -73.35 -119.24 0zm-13.34 80.02l0 -86.66 0 -6.64 6.67 -0 132.58 -0 6.67 0 0 6.64 0 86.67 0 6.67 -6.67 0 -132.58 0 -6.67 0 0 -6.67zm-9.68 194.19l246.91 0c12.46,0 20.48,6.93 24.03,15.79 1.34,3.35 2.02,6.95 2.02,10.5 0,3.55 -0.68,7.15 -2.02,10.5 -3.55,8.86 -11.57,15.79 -24.03,15.79l-246.91 0c-12.46,0 -20.48,-6.93 -24.03,-15.79 -1.34,-3.35 -2.02,-6.95 -2.02,-10.5 0,-3.55 0.68,-7.15 2.02,-10.5 3.55,-8.86 11.57,-15.79 24.03,-15.79zm246.91 13.34l-246.91 0c-6.13,0 -10.02,3.25 -11.69,7.4 -0.68,1.7 -1.02,3.61 -1.02,5.56 0,1.94 0.35,3.85 1.02,5.56 1.66,4.15 5.55,7.4 11.69,7.4l246.91 0c6.14,0 10.02,-3.25 11.69,-7.4 0.68,-1.7 1.02,-3.61 1.02,-5.56 0,-1.94 -0.35,-3.85 -1.02,-5.56 -1.66,-4.15 -5.55,-7.4 -11.69,-7.4zm-297.47 -363.96l0 484.83c0,6.13 2.47,11.65 6.44,15.61l0.02 0.02c3.98,3.99 9.52,6.45 15.62,6.45l0 0.03 665.65 -0 0 -0.03c6.11,0 11.63,-2.48 15.61,-6.46 4,-4 6.47,-9.54 6.47,-15.63l0 -484.83 -266.28 0 0 144.17c0,7.27 -2.98,13.83 -7.76,18.57 -4.81,4.78 -11.44,7.72 -18.67,7.72 -12,0 -36.32,-20.12 -54.2,-34.91 -2.86,-2.37 -5.56,-4.59 -7.87,-6.48l-46.28 35.9c-4.97,3.85 -10.57,5.59 -16.03,5.59 -3.99,0 -7.94,-0.96 -11.52,-2.72 -3.56,-1.75 -6.74,-4.3 -9.2,-7.49 -3.38,-4.36 -5.46,-9.89 -5.46,-16.18l0 -144.17 -266.55 0zm-13.34 484.83l0 -491.5 0 -6.67 6.67 0 279.89 0 6.67 0 0 6.67 0 150.84c0,3.19 1.01,5.94 2.65,8.05 1.22,1.57 2.78,2.83 4.51,3.69 1.72,0.85 3.67,1.31 5.69,1.31 2.68,0 5.44,-0.86 7.9,-2.77l50.41 -39.11 4.07 -3.16 4.08 3.19c3.76,2.94 7.78,6.26 12.2,9.93 16.3,13.48 38.47,31.83 45.71,31.83 3.61,0 6.92,-1.45 9.29,-3.81 2.33,-2.32 3.8,-5.55 3.8,-9.15l0 -150.84 0 -6.67 6.67 0 279.62 0 6.67 0 0 6.67 0 491.5c0,9.75 -3.96,18.63 -10.39,25.05 -6.39,6.39 -15.24,10.37 -25.04,10.37l0 -0.03 -665.65 0 0 0.03c-9.72,0 -18.59,-3.96 -25.02,-10.39l-0.01 -0.01 -0.01 -0.01c-6.4,-6.41 -10.37,-15.25 -10.37,-25.01zm63.9 -54.22l185.18 0c12.46,0 20.48,6.93 24.03,15.79 1.34,3.35 2.02,6.95 2.02,10.5 0,3.55 -0.68,7.15 -2.02,10.5 -3.55,8.86 -11.57,15.79 -24.03,15.79l-185.18 0c-12.46,0 -20.48,-6.93 -24.03,-15.79 -1.34,-3.35 -2.02,-6.95 -2.02,-10.5 0,-3.55 0.68,-7.15 2.02,-10.5 3.55,-8.86 11.57,-15.79 24.03,-15.79zm185.18 13.34l-185.18 0c-6.13,0 -10.02,3.25 -11.69,7.4 -0.68,1.7 -1.02,3.61 -1.02,5.56 0,1.94 0.35,3.85 1.02,5.56 1.66,4.15 5.55,7.4 11.69,7.4l185.18 0c6.14,0 10.02,-3.25 11.69,-7.4 0.68,-1.7 1.02,-3.61 1.02,-5.56 0,-1.94 -0.35,-3.85 -1.02,-5.56 -1.66,-4.15 -5.55,-7.4 -11.69,-7.4zm176.73 -93.33l246.91 0c12.44,0 20.45,6.93 24,15.8l0.01 -0c1.34,3.35 2.02,6.95 2.02,10.5 0,3.55 -0.67,7.15 -2.01,10.5 -3.54,8.86 -11.56,15.79 -24.01,15.79l-246.91 0c-12.43,0 -20.45,-6.93 -24,-15.8l-0.01 0c-1.34,-3.35 -2.02,-6.95 -2.02,-10.5 0,-3.55 0.67,-7.15 2.01,-10.5 3.54,-8.86 11.56,-15.79 24.01,-15.79zm246.91 13.34l-246.91 0c-6.12,0 -10,3.25 -11.66,7.4 -0.68,1.7 -1.02,3.61 -1.02,5.56 0,1.94 0.35,3.85 1.02,5.56l0 0.02c1.65,4.13 5.53,7.37 11.66,7.37l246.91 0c6.12,0 10,-3.25 11.66,-7.4 0.68,-1.7 1.02,-3.61 1.02,-5.56 0,-1.94 -0.35,-3.85 -1.02,-5.56l0 -0.02c-1.65,-4.14 -5.53,-7.37 -11.66,-7.37zm-440.27 -161.61l-171.83 0c-7.27,0 -13.84,-2.94 -18.6,-7.69l-0.01 0.01c-4.75,-4.75 -7.68,-11.33 -7.68,-18.61l0 -125.91c0,-7.26 2.93,-13.83 7.68,-18.59l0.01 -0.01 0.01 -0.01c4.76,-4.75 11.33,-7.68 18.59,-7.68l0 0.03 171.83 0 0 -0.03c7.28,0 13.86,2.93 18.61,7.68l-0.01 0.01c4.76,4.76 7.69,11.33 7.69,18.6l0 125.91c0,7.2 -2.94,13.8 -7.72,18.58l0.01 0.01c-4.74,4.74 -11.3,7.7 -18.58,7.7zm-171.83 -13.34l171.83 0c3.59,0 6.83,-1.46 9.15,-3.78l0.02 0c2.33,-2.33 3.78,-5.58 3.78,-9.17l0 -125.91c0,-3.63 -1.43,-6.87 -3.74,-9.19l-0.02 0c-2.33,-2.33 -5.57,-3.77 -9.19,-3.77l0 -0.03 -171.83 -0 0 0.03c-3.63,0 -6.87,1.43 -9.19,3.74l-0.02 0.02c-2.31,2.31 -3.74,5.56 -3.74,9.19l0 125.91c0,3.61 1.44,6.86 3.77,9.19l0 0.02c2.31,2.31 5.56,3.74 9.19,3.74zm417.25 -12.95l0 -125.91c0,-7.28 2.96,-13.84 7.7,-18.58 4.77,-4.77 11.37,-7.71 18.59,-7.71l0 0.03 171.83 0 0 -0.03c7.23,0 13.83,2.94 18.59,7.71 4.74,4.74 7.7,11.3 7.7,18.58l0 125.91c0,7.22 -2.97,13.8 -7.73,18.56l-0.02 0c-4.77,4.76 -11.34,7.73 -18.54,7.73l-171.83 0c-7.23,0 -13.83,-2.94 -18.59,-7.71 -4.74,-4.74 -7.7,-11.3 -7.7,-18.58zm13.34 -125.91l0 125.91c0,3.59 1.46,6.83 3.78,9.15 2.35,2.35 5.6,3.8 9.17,3.8l171.83 0c3.55,0 6.8,-1.46 9.15,-3.8l-0.01 -0.01c2.35,-2.35 3.81,-5.59 3.81,-9.13l0 -125.91c0,-3.59 -1.46,-6.83 -3.78,-9.15 -2.35,-2.35 -5.6,-3.8 -9.17,-3.8l0 -0.03 -171.83 -0 0 0.03c-3.57,0 -6.82,1.45 -9.17,3.8 -2.33,2.33 -3.78,5.57 -3.78,9.15zm-3.67 380.46l185.18 0c12.44,0 20.45,6.93 24,15.8l0.01 -0c1.34,3.35 2.02,6.95 2.02,10.5 0,3.55 -0.67,7.15 -2.01,10.5 -3.54,8.86 -11.56,15.79 -24.01,15.79l-185.18 0c-12.43,0 -20.45,-6.93 -24,-15.8l-0.01 0c-1.34,-3.35 -2.02,-6.95 -2.02,-10.5 0,-3.55 0.67,-7.15 2.01,-10.5 3.54,-8.86 11.56,-15.79 24.01,-15.79zm185.18 13.34l-185.18 0c-6.12,0 -10,3.25 -11.66,7.4 -0.68,1.7 -1.02,3.61 -1.02,5.56 0,1.94 0.35,3.85 1.02,5.56l0 0.02c1.65,4.13 5.53,7.37 11.66,7.37l185.18 0c6.12,0 10,-3.25 11.66,-7.4 0.68,-1.7 1.02,-3.61 1.02,-5.56 0,-1.94 -0.35,-3.85 -1.02,-5.56l0 -0.02c-1.65,-4.14 -5.53,-7.37 -11.66,-7.37zm-142.26 -367.53l0 73.35 119.24 0 0 -73.35 -119.24 0zm-13.34 80.02l0 -86.66 0 -6.64 6.67 -0 132.58 -0 6.67 0 0 6.64 0 86.67 0 6.67 -6.67 0 -132.58 0 -6.67 0 0 -6.67zm-184.65 -156.44l0 90.41 2.55 -2.03c15.93,-12.68 23.91,-19.03 33.6,-19.06 9.66,-0.03 17.6,6.31 33.48,19.02l2.2 1.76 0 -90.11 -71.82 0zm-13.34 104.11l0 -110.78 0 -6.67 6.67 0 85.16 0 6.67 0 0 6.67 0 110.51 0 13.63 -10.76 -8.39c-4.21,-3.28 -8.91,-7.05 -13.06,-10.36 -13.43,-10.75 -20.15,-16.12 -25.19,-16.1 -4.99,0.02 -11.78,5.41 -25.32,16.19 -3.68,2.93 -7.86,6.25 -13.44,10.57l-10.73 8.31 0 -13.57zm-12.95 -156.7l389.32 0 -14.09 -33.13 -626.2 0 -13.99 33.13 264.95 0zm399.39 13.34l-399.39 0 -274.98 0 -10.02 0 3.9 -9.25 19.62 -46.46 1.73 -4.09 4.39 0 634.99 0 4.39 0 1.73 4.06 19.76 46.46 3.94 9.28 -10.06 0zm-340.93 -187.23c-11.76,0 -22.42,-4.76 -30.14,-12.47l-0.01 -0.01 -0.01 -0.01c-7.71,-7.72 -12.47,-18.38 -12.47,-30.15l0 -118.29c-151.63,11.4 -288.04,78.28 -388.89,180.35 -100.78,101.98 -166.09,239.08 -175.69,391.03l118.85 0c20.21,0 33.2,11.17 38.91,25.46 2.19,5.46 3.28,11.35 3.28,17.19 0,5.83 -1.09,11.72 -3.28,17.18 -5.71,14.29 -18.7,25.45 -38.91,25.45l-118.29 0c11.4,151.63 78.28,288.04 180.35,388.9 101.97,100.78 239.07,166.09 391.03,175.68l0 -118.85c0,-20.22 11.16,-33.2 25.44,-38.91 5.46,-2.18 11.35,-3.28 17.19,-3.28 5.83,0 11.72,1.09 17.19,3.28 14.29,5.71 25.47,18.7 25.47,38.91l0 118.29c151.63,-11.4 288.04,-78.28 388.9,-180.35 100.78,-101.98 166.09,-239.08 175.68,-391.03l-118.85 0c-20.21,0 -33.2,-11.17 -38.92,-25.45 -2.19,-5.46 -3.28,-11.35 -3.28,-17.19 0,-5.83 1.1,-11.72 3.28,-17.19 5.72,-14.29 18.7,-25.46 38.92,-25.46l118.29 0c-11.4,-151.63 -78.28,-288.04 -180.35,-388.9 -101.98,-100.78 -239.07,-166.09 -391.03,-175.68l0 118.85c0,11.8 -4.76,22.46 -12.47,30.17 -7.7,7.7 -18.37,12.47 -30.17,12.47zm-20.74 -21.87c5.27,5.28 12.6,8.54 20.74,8.54 8.12,0 15.46,-3.27 20.74,-8.56 5.29,-5.29 8.56,-12.62 8.56,-20.74l0 -125.9 0 -7 7.01 0.36c158.13,8.17 300.91,75.35 406.69,179.89 105.92,104.67 174.76,246.8 184.8,404.63l0.45 7.09 -7.09 0 -125.43 0c-13.89,0 -22.74,7.49 -26.57,17.06 -1.52,3.81 -2.29,8.01 -2.29,12.24 0,4.23 0.76,8.43 2.29,12.24 3.83,9.57 12.68,17.06 26.57,17.06l125.89 0 7 0 -0.36 7.01c-8.17,158.12 -75.35,300.91 -179.89,406.69 -104.67,105.93 -246.8,174.77 -404.63,184.8l-7.09 0.45 0 -7.09 0 -125.43c0,-13.88 -7.5,-22.73 -17.08,-26.56 -3.81,-1.52 -8.01,-2.29 -12.24,-2.29 -4.24,0 -8.43,0.77 -12.24,2.29 -9.56,3.83 -17.04,12.67 -17.04,26.56l0 125.89 0 7 -7.01 -0.36c-158.12,-8.17 -300.91,-75.35 -406.68,-179.89 -105.93,-104.67 -174.77,-246.8 -184.8,-404.63l-0.45 -7.09 7.09 0 125.43 0c13.89,0 22.74,-7.49 26.57,-17.06 1.52,-3.81 2.29,-8 2.29,-12.24 0,-4.23 -0.77,-8.43 -2.29,-12.24 -3.83,-9.57 -12.68,-17.06 -26.57,-17.06l-125.89 0 -7 0 0.36 -7.01c8.17,-158.12 75.36,-300.91 179.89,-406.69 104.67,-105.93 246.8,-174.77 404.63,-184.8l7.09 -0.45 0 7.09 0 125.43c0,8.14 3.26,15.47 8.54,20.74l0.02 0.02z" id="id_103" style="fill: rgb(22, 85, 143);"></path>
 </g>
</svg>