<svg xmlns="http://www.w3.org/2000/svg" xml:space="preserve" width="2.66666in" height="2.66666in" version="1.1" style="shape-rendering:geometricPrecision; text-rendering:geometricPrecision; image-rendering:optimizeQuality; fill-rule:evenodd; clip-rule:evenodd" viewBox="0 0 2666.66 2666.66" xmlns:xlink="http://www.w3.org/1999/xlink" xmlns:xodm="http://www.corel.com/coreldraw/odm/2003">
 <defs>
  <style type="text/css">
   
    .fil0 {fill:#8D9A89}
    .fil1 {fill:white}
    .fil2 {fill:#015C55;fill-rule:nonzero}
   
  </style>
 </defs>
 <g id="Layer_x0020_1">
  <metadata id="CorelCorpID_0Corel-Layer"></metadata>
  <circle class="fil0" cx="1333.33" cy="1333.33" r="1333.33" id="id_101" style="fill: rgb(22, 85, 143);"></circle>
  <path class="fil1" d="M1764.66 1979.23c0,67.91 55.37,123.28 123.28,123.28 74.85,0 132.22,-66.54 122.17,-139.88 -8.28,-59.91 -60.44,-106.68 -122.17,-106.68 -67.96,0 -123.28,56.11 -123.28,123.28zm-218.72 -291.44l461.5 0 0 -346.81 -135.96 0 0 112.64c0,11.51 -9.33,20.98 -20.98,20.98l-147.62 0c-11.51,0 -20.98,-9.47 -20.98,-20.98l0 -112.64 -135.95 0 0 346.81zm177.92 -255.16l105.65 0 0 -91.66 -105.65 0 0 91.66zm-251.65 -480.58l0 91.66 105.65 0 0 -91.66 -105.65 0zm-177.92 346.96l461.49 0 0 -346.96 -135.96 0 0 112.64c0,11.66 -9.47,20.98 -20.98,20.98l-147.61 0c-11.51,0 -20.98,-9.33 -20.98,-20.98l0 -112.64 -135.95 0 0 346.96zm-73.88 41.96l0 91.66 105.65 0 0 -91.66 -105.65 0zm-177.92 346.81l461.49 0 0 -346.81 -135.96 0 0 112.64c0,11.51 -9.47,20.98 -20.98,20.98l-147.61 0c-11.65,0 -20.98,-9.47 -20.98,-20.98l0 -112.64 -135.96 0 0 346.81zm-306.45 -1015.52l0 1015.52 85.24 0 0 -1123.64 -341.28 0 0 87.14 235.05 0c11.66,0 20.98,9.33 20.98,20.98zm462.37 1282.92l525.89 0c11.67,-79.86 80.59,-141.35 163.65,-141.35 83.06,0 151.98,61.48 163.65,141.35l124.58 0c5.69,0 10.49,-4.81 10.49,-10.49l0 -214.79 -1450.63 0 0 214.79c0,5.68 4.81,10.49 10.49,10.49l124.73 0c11.67,-79.86 80.58,-141.35 163.5,-141.35 83.06,0 151.97,61.48 163.65,141.35zm-286.93 24.04c0,67.91 55.37,123.28 123.28,123.28 68.9,0 124.9,-56.76 123.28,-125.9 -1.46,-66.45 -56.83,-120.66 -123.28,-120.66 -67.96,0 -123.28,56.11 -123.28,123.28z" id="id_102"></path>
  <path class="fil2" d="M1754.67 1962.57c0,32.11 13.1,61.27 34.22,82.39 21.12,21.12 50.28,34.22 82.39,34.22 5.52,0 10.87,-0.37 16,-1.07 28.74,-3.94 53.91,-18.39 71.89,-39.07 17.99,-20.68 28.78,-47.57 28.78,-76.34l-0.03 0c0,-5.3 -0.35,-10.59 -1.06,-15.82l-0 0c-3.94,-28.5 -18.39,-53.87 -39.2,-72.05 -20.55,-17.94 -47.35,-28.88 -76.38,-28.88 -32.04,0 -61.11,13.2 -82.22,34.3 -21.23,21.22 -34.39,50.46 -34.39,82.31zm24.8 91.82c-23.54,-23.54 -38.13,-56.03 -38.13,-91.82 0,-35.52 14.66,-68.09 38.31,-91.74 23.51,-23.51 55.93,-38.21 91.64,-38.21 32.33,0 62.2,12.2 85.13,32.22 23.17,20.23 39.25,48.48 43.63,80.22l0 0.03c0.82,6.01 1.22,11.89 1.22,17.62l-0.03 0c-0,32.13 -12.01,62.09 -32.01,85.09 -20.01,23.01 -48.07,39.1 -80.17,43.5 -5.88,0.81 -11.82,1.22 -17.77,1.22 -35.79,0 -68.28,-14.59 -91.81,-38.13zm-243.52 -389.93l448.16 0 0 -333.48 -122.62 0 0 105.97c0,7.61 -3.1,14.54 -8.11,19.56 -4.99,4.99 -11.89,8.09 -19.54,8.09l-147.62 0c-7.59,0 -14.51,-3.12 -19.52,-8.13 -5.01,-5.01 -8.13,-11.93 -8.13,-19.52l0 -105.97 -122.61 0 0 333.48zm454.83 13.34l-461.5 0 -6.67 0 0 -6.67 0 -346.81 0 -6.67 6.67 0 135.95 0 6.67 0 0 6.67 0 112.64c0,3.92 1.62,7.5 4.22,10.1 2.6,2.6 6.18,4.22 10.09,4.22l147.62 0c3.96,0 7.54,-1.61 10.11,-4.18 2.59,-2.59 4.2,-6.19 4.2,-10.13l0 -112.64 0 -6.67 6.67 0 135.96 0 6.67 0 0 6.67 0 346.81 0 6.67 -6.67 0zm-276.91 -268.5l92.31 0 0 -78.32 -92.31 0 0 78.32zm98.98 13.34l-105.65 0 -6.67 0 0 -6.67 0 -91.66 0 -6.67 6.67 0 105.65 0 6.67 0 0 6.67 0 91.66 0 6.67 -6.67 0zm-350.63 -480.58l0 78.32 92.31 0 0 -78.32 -92.31 0zm-13.34 84.99l0 -91.66 0 -6.67 6.67 0 105.65 0 6.67 0 0 6.67 0 91.66 0 6.67 -6.67 0 -105.65 0 -6.67 0 0 -6.67zm-164.58 248.63l448.15 0 0 -333.62 -122.62 0 0 105.97c0,7.63 -3.11,14.53 -8.09,19.52l-0.02 0.02c-5.02,5.02 -11.95,8.11 -19.54,8.11l-147.61 0c-7.61,0 -14.54,-3.1 -19.56,-8.11 -4.99,-4.99 -8.09,-11.89 -8.09,-19.54l0 -105.97 -122.61 0 0 333.62zm454.82 13.34l-461.49 0 -6.67 0 0 -6.67 0 -346.96 0 -6.67 6.67 0 135.95 0 6.67 0 0 6.67 0 112.64c0,3.96 1.61,7.54 4.18,10.11 2.59,2.59 6.19,4.2 10.13,4.2l147.61 0c3.94,0 7.54,-1.59 10.13,-4.17 2.57,-2.58 4.18,-6.16 4.18,-10.14l0 -112.64 0 -6.67 6.67 0 135.96 0 6.67 0 0 6.67 0 346.96 0 6.67 -6.67 0zm-528.7 41.96l0 78.32 92.31 0 0 -78.32 -92.31 0zm-13.34 84.99l0 -91.66 0 -6.67 6.67 0 105.65 0 6.67 0 0 6.67 0 91.66 0 6.67 -6.67 0 -105.65 0 -6.67 0 0 -6.67zm-164.58 248.49l448.15 0 0 -333.48 -122.62 0 0 105.97c0,7.59 -3.12,14.51 -8.13,19.52 -5.01,5.01 -11.93,8.13 -19.52,8.13l-147.61 0c-7.65,0 -14.55,-3.11 -19.54,-8.1 -5.02,-5.02 -8.11,-11.95 -8.11,-19.56l0 -105.97 -122.62 0 0 333.48zm454.82 13.34l-461.49 0 -6.67 0 0 -6.67 0 -346.81 0 -6.67 6.67 0 135.96 0 6.67 0 0 6.67 0 112.64c0,3.94 1.6,7.54 4.2,10.13 2.58,2.58 6.15,4.19 10.11,4.19l147.61 0c3.92,0 7.5,-1.62 10.1,-4.22 2.6,-2.6 4.22,-6.18 4.22,-10.1l0 -112.64 0 -6.67 6.67 0 135.96 0 6.67 0 0 6.67 0 346.81 0 6.67 -6.67 0zm-761.27 -1022.19l0 1008.85 71.91 0 0 -1110.3 -327.94 0 0 73.8 228.38 0c7.66,0 14.58,3.08 19.57,8.07 5,5 8.08,11.91 8.08,19.57zm-13.34 1015.52l0 -1015.52c0,-3.98 -1.59,-7.57 -4.17,-10.15 -2.57,-2.57 -6.17,-4.16 -10.15,-4.16l-235.05 0 -6.67 0 0 -6.67 0 -87.14 0 -6.67 6.67 0 341.28 0 6.67 0 0 6.67 0 1123.64 0 6.67 -6.67 0 -85.24 0 -6.67 0 0 -6.67zm474.7 260.73l514.57 0c7.14,-39.47 27.79,-74.3 56.97,-99.5 30.17,-26.06 69.45,-41.84 112.34,-41.84 42.89,0 82.17,15.78 112.34,41.84 29.18,25.2 49.83,60.03 56.97,99.5l118.93 0c1,0 1.96,-0.45 2.67,-1.16 0.71,-0.71 1.16,-1.66 1.16,-2.67l0 -208.12 -1437.3 0 0 208.12c0,1 0.45,1.96 1.16,2.67 0.71,0.71 1.66,1.16 2.67,1.16l119.07 0c7.13,-39.46 27.78,-74.29 56.93,-99.49 30.15,-26.07 69.41,-41.85 112.23,-41.85 42.89,0 82.17,15.78 112.34,41.84 29.18,25.2 49.83,60.03 56.96,99.5zm520.23 13.34l-525.89 0 -5.76 0 -0.83 -5.7c-5.64,-38.59 -25.21,-72.72 -53.42,-97.08 -27.8,-24.02 -64.04,-38.56 -103.64,-38.56 -39.53,0 -75.74,14.55 -103.53,38.57 -28.18,24.36 -47.74,58.49 -53.38,97.07l-0.83 5.7 -5.76 0 -124.73 0c-4.68,0 -8.98,-1.96 -12.09,-5.07 -3.11,-3.11 -5.07,-7.41 -5.07,-12.09l0 -214.79 0 -6.67 6.67 0 1450.63 0 6.67 0 0 6.67 0 214.79c0,4.68 -1.96,8.98 -5.07,12.09 -3.11,3.11 -7.41,5.07 -12.09,5.07l-124.58 0 -5.76 0 -0.83 -5.7c-5.64,-38.59 -25.21,-72.72 -53.42,-97.08 -27.8,-24.02 -64.04,-38.56 -103.64,-38.56 -39.59,0 -75.83,14.54 -103.64,38.56 -28.21,24.37 -47.78,58.49 -53.42,97.08l-0.83 5.7 -5.76 0zm-806.15 17.37c0,32.11 13.09,61.27 34.22,82.39 21.12,21.12 50.28,34.22 82.39,34.22l2.77 -0.01 0.03 0c31.47,-0.74 59.95,-14.01 80.55,-35.01 20.58,-20.97 33.31,-49.67 33.32,-81.24l-0.04 -2.85c-0.69,-31.41 -14.15,-59.94 -35.29,-80.64 -21.11,-20.66 -49.92,-33.48 -81.35,-33.48 -32.04,0 -61.11,13.2 -82.22,34.3 -21.23,21.22 -34.39,50.46 -34.39,82.31zm24.79 91.82c-23.54,-23.54 -38.13,-56.03 -38.13,-91.82 0,-35.52 14.66,-68.09 38.31,-91.74 23.51,-23.51 55.93,-38.21 91.64,-38.21 35.02,0 67.13,14.3 90.67,37.33 23.51,23.02 38.48,54.82 39.25,89.86l0 0.05 0.04 2.92 0 0.08c-0,35.23 -14.18,67.24 -37.13,90.61 -22.93,23.37 -54.65,38.15 -89.74,38.97l-3.09 0.06c-35.79,0 -68.28,-14.59 -91.82,-38.13z" id="id_103" style="fill: rgb(22, 85, 143);"></path>
 </g>
</svg>