<svg xmlns="http://www.w3.org/2000/svg" xml:space="preserve" width="2.66666in" height="2.66666in" version="1.1" style="shape-rendering:geometricPrecision; text-rendering:geometricPrecision; image-rendering:optimizeQuality; fill-rule:evenodd; clip-rule:evenodd" viewBox="0 0 2666.66 2666.66" xmlns:xlink="http://www.w3.org/1999/xlink" xmlns:xodm="http://www.corel.com/coreldraw/odm/2003">
 <defs>
  <style type="text/css">
   
    .fil0 {fill:#8D9A89}
    .fil1 {fill:white}
    .fil2 {fill:#015C55;fill-rule:nonzero}
   
  </style>
 </defs>
 <g id="Layer_x0020_1">
  <metadata id="CorelCorpID_0Corel-Layer"></metadata>
  <circle class="fil0" cx="1333.33" cy="1333.33" r="1333.33" id="id_101" style="fill: rgb(22, 85, 143);"></circle>
  <path class="fil1" d="M2111.73 1870.59l-551.37 0c17.82,63.13 65.25,180.06 162.94,264.85 13.78,11.95 4.9,34.47 -13.07,34.47l-753.67 0c-18.06,0 -26.6,-22.63 -12.81,-34.47 97.7,-84.79 145.04,-201.73 162.89,-264.85l-551.58 0c-41.38,0 -75.07,-33.69 -75.07,-75.07l0 -1223.7c0,-41.38 33.7,-75.07 75.07,-75.07l1556.53 0c41.38,0 75.07,33.7 75.07,75.07l0 1223.7c0,41.29 -33.6,75.06 -74.93,75.06zm-997.7 -1077.88l-420.83 0c-48.33,0 -48.2,-73.33 0,-73.33l420.83 0c48.28,0 48.29,73.33 0,73.33zm-90.14 147.64l-330.56 0c-48.28,0 -48.28,-73.33 0,-73.33l330.56 0c48.33,0 48.2,73.33 0,73.33zm90.14 156.53l-420.83 0c-48.28,0 -48.28,-73.33 0,-73.33l420.83 0c48.28,0 48.29,73.33 0,73.33zm0 298.33l-420.83 0c-48.29,0 -48.29,-73.33 0,-73.33l420.83 0c48.28,0 48.29,73.33 0,73.33zm0 -150.56l-330.56 0c-48.28,0 -48.28,-73.33 0,-73.33l330.56 0c48.28,0 48.29,73.33 0,73.33zm859.44 -226.11l-285 0c-10.97,0 -20,-8.89 -20,-20l0 -285c0,-11.11 9.03,-20 20,-20 168.19,0 305,136.81 305,305 0,11.11 -9.03,20 -20,20zm-365.56 365.69c-168.19,0 -305,-136.8 -305,-305 0,-168.19 136.8,-305 305,-305 10.97,0 20,8.89 20,20l0 265 265 0c10.97,0 20,8.89 20,20 0,168.06 -136.81,305 -305,305zm405.59 351.75l-51.77 0c-47.33,0 -47.33,-71.93 0,-71.93l51.77 0c47.33,0 47.33,71.93 0,71.93zm-150 0l-51.77 0c-47.33,0 -47.33,-71.93 0,-71.93l51.77 0c47.33,0 47.33,71.93 0,71.93zm-150 0l-51.77 0c-47.33,0 -47.33,-71.93 0,-71.93l51.77 0c47.33,0 47.33,71.93 0,71.93zm-1161.57 -199.17l1562.8 0 0 -965.13c0,-1.74 -1.39,-3.14 -3.13,-3.14l-1556.53 0c-1.82,0 -3.13,1.49 -3.13,3.27l0 964.99z" id="id_102"></path>
  <path class="fil2" d="M2095.07 1860.59l-542.48 0c10.92,36.13 30.67,86.75 62.47,138.45 24.42,39.69 55.93,79.98 95.94,114.7 6.26,5.43 9.05,12.52 9.05,19.5 0,3.18 -0.61,6.38 -1.74,9.41l0 0.02c-1.12,2.98 -2.78,5.78 -4.89,8.22 -4.69,5.4 -11.56,9.02 -19.84,9.02l-753.67 0c-8.32,0 -15.17,-3.64 -19.81,-9.04 -2.06,-2.4 -3.68,-5.18 -4.78,-8.15 -1.1,-2.96 -1.69,-6.14 -1.69,-9.33l-0.03 0c0,-7.05 2.83,-14.2 9.15,-19.65 40,-34.71 71.48,-74.97 95.88,-114.65 31.81,-51.72 51.55,-102.36 62.48,-138.51l-542.7 0c-22.52,0 -42.96,-9.17 -57.76,-23.97 -14.8,-14.8 -23.97,-35.24 -23.97,-57.76l0 -1223.7c0,-22.5 9.18,-42.94 23.98,-57.75l-0.01 -0.01c14.8,-14.8 35.24,-23.98 57.76,-23.98l0 0.03 1556.53 0 0 -0.03c22.5,0 42.94,9.18 57.75,23.98l0.01 -0.01c14.8,14.8 23.98,35.24 23.98,57.76l0 1223.7c0,22.47 -9.17,42.92 -23.95,57.73 -14.78,14.8 -35.18,24 -57.65,24zm-551.37 -13.34l551.37 0c18.82,0 35.88,-7.68 48.22,-20.04 12.37,-12.39 20.04,-29.52 20.04,-48.35l0 -1223.7c0,-18.85 -7.68,-35.95 -20.06,-48.34l0 -0.02c-12.37,-12.37 -29.47,-20.04 -48.33,-20.04l0 -0.03 -1556.53 -0 0 0.03c-18.85,0 -35.95,7.68 -48.34,20.06l-0.02 0c-12.37,12.37 -20.04,29.47 -20.04,48.33l0 1223.7c0,18.85 7.68,35.96 20.06,48.34 12.38,12.38 29.49,20.06 48.34,20.06l551.58 0 8.8 0 -2.39 8.46c-10.56,37.34 -31.3,93.27 -66.41,150.36 -25,40.66 -57.34,81.98 -98.53,117.73l-0.03 0.02c-3.09,2.66 -4.48,6.14 -4.48,9.57l-0.03 0c0,1.59 0.3,3.19 0.85,4.69 0.56,1.5 1.39,2.92 2.44,4.14 2.23,2.6 5.58,4.35 9.7,4.35l753.67 0c4.13,0 7.52,-1.76 9.79,-4.38 1.07,-1.23 1.92,-2.67 2.49,-4.2l0.01 0c0.55,-1.48 0.85,-3.09 0.85,-4.75 0,-3.37 -1.36,-6.8 -4.41,-9.45 -41.21,-35.77 -73.57,-77.11 -98.59,-117.78 -35.11,-57.07 -55.87,-112.98 -66.41,-150.3l-2.39 -8.46 8.8 0zm-446.34 -1064.54l-420.83 0c-20.55,0 -33.74,-11.34 -39.54,-25.84 -2.22,-5.55 -3.33,-11.54 -3.33,-17.47 0,-5.92 1.12,-11.89 3.33,-17.45l0 -0.02c5.81,-14.53 19.01,-25.89 39.54,-25.89l420.83 0c20.54,0 33.74,11.35 39.55,25.87 2.22,5.56 3.33,11.54 3.33,17.47 0,5.93 -1.11,11.91 -3.33,17.47 -5.8,14.52 -19,25.86 -39.55,25.86zm-420.83 -13.34l420.83 0c14.22,0 23.28,-7.67 27.2,-17.47 1.56,-3.9 2.34,-8.2 2.34,-12.53 0,-4.33 -0.78,-8.62 -2.34,-12.52 -3.92,-9.81 -12.98,-17.47 -27.2,-17.47l-420.83 0c-14.2,0 -23.26,7.68 -27.19,17.5l-0.01 -0c-1.55,3.89 -2.33,8.19 -2.33,12.53 0,4.33 0.78,8.63 2.34,12.52 3.92,9.79 12.97,17.44 27.19,17.44zm330.69 160.98l-330.56 0c-20.54,0 -33.74,-11.35 -39.55,-25.87 -2.22,-5.56 -3.33,-11.54 -3.33,-17.47 0,-5.93 1.11,-11.92 3.33,-17.47 5.81,-14.52 19,-25.87 39.55,-25.87l330.56 0c20.55,0 33.74,11.34 39.54,25.84 2.22,5.55 3.33,11.54 3.33,17.47 0,5.92 -1.12,11.89 -3.33,17.45l0 0.02c-5.81,14.53 -19.01,25.89 -39.54,25.89zm-330.56 -13.34l330.56 0c14.2,0 23.26,-7.68 27.19,-17.5l0.01 0c1.55,-3.89 2.33,-8.19 2.33,-12.53 0,-4.33 -0.78,-8.63 -2.34,-12.52 -3.92,-9.79 -12.97,-17.44 -27.19,-17.44l-330.56 0c-14.22,0 -23.28,7.67 -27.2,17.47 -1.56,3.9 -2.34,8.19 -2.34,12.52 0,4.33 0.78,8.62 2.34,12.52 3.92,9.81 12.98,17.47 27.2,17.47zm420.69 169.87l-420.83 0c-20.54,0 -33.74,-11.35 -39.55,-25.87 -2.22,-5.56 -3.33,-11.54 -3.33,-17.47 0,-5.93 1.11,-11.92 3.33,-17.47 5.81,-14.52 19,-25.87 39.55,-25.87l420.83 0c20.54,0 33.74,11.35 39.55,25.87 2.22,5.56 3.33,11.54 3.33,17.47 0,5.93 -1.11,11.91 -3.33,17.47 -5.8,14.52 -19,25.86 -39.55,25.86zm-420.83 -13.34l420.83 0c14.22,0 23.28,-7.67 27.2,-17.47 1.56,-3.9 2.34,-8.2 2.34,-12.53 0,-4.33 -0.78,-8.62 -2.34,-12.52 -3.92,-9.81 -12.98,-17.47 -27.2,-17.47l-420.83 0c-14.22,0 -23.28,7.67 -27.2,17.47 -1.56,3.9 -2.34,8.19 -2.34,12.52 0,4.33 0.78,8.62 2.34,12.52 3.92,9.81 12.98,17.47 27.2,17.47zm420.83 311.67l-420.83 0c-20.54,0 -33.74,-11.35 -39.55,-25.87 -2.22,-5.56 -3.33,-11.54 -3.33,-17.47 0,-5.93 1.11,-11.92 3.33,-17.47 5.81,-14.52 19,-25.87 39.55,-25.87l420.83 0c20.54,0 33.74,11.35 39.55,25.87 2.22,5.56 3.33,11.54 3.33,17.47 0,5.93 -1.11,11.92 -3.33,17.47 -5.81,14.51 -19.01,25.86 -39.55,25.86zm-420.83 -13.34l420.83 0c14.22,0 23.28,-7.67 27.2,-17.47 1.56,-3.9 2.34,-8.2 2.34,-12.53 0,-4.33 -0.78,-8.62 -2.34,-12.52 -3.93,-9.8 -12.98,-17.47 -27.2,-17.47l-420.83 0c-14.22,0 -23.28,7.67 -27.2,17.47 -1.56,3.9 -2.34,8.19 -2.34,12.52 0,4.33 0.78,8.62 2.34,12.52 3.93,9.8 12.98,17.47 27.2,17.47zm420.83 -137.22l-330.56 0c-20.54,0 -33.74,-11.35 -39.55,-25.87 -2.22,-5.56 -3.33,-11.54 -3.33,-17.47 0,-5.93 1.11,-11.92 3.33,-17.47 5.81,-14.52 19,-25.87 39.55,-25.87l330.56 0c20.54,0 33.74,11.35 39.55,25.87 2.22,5.56 3.33,11.54 3.33,17.47 0,5.93 -1.11,11.91 -3.33,17.47 -5.8,14.52 -19,25.86 -39.55,25.86zm-330.56 -13.34l330.56 0c14.22,0 23.28,-7.67 27.2,-17.47 1.56,-3.9 2.34,-8.2 2.34,-12.53 0,-4.33 -0.78,-8.62 -2.34,-12.52 -3.92,-9.81 -12.98,-17.47 -27.2,-17.47l-330.56 0c-14.22,0 -23.28,7.67 -27.2,17.47 -1.56,3.9 -2.34,8.19 -2.34,12.52 0,4.33 0.78,8.62 2.34,12.52 3.92,9.81 12.98,17.47 27.2,17.47zm1190 -212.77l-285 0c-7.31,0 -13.99,-2.98 -18.84,-7.82l-0.02 -0.02c-4.81,-4.81 -7.81,-11.46 -7.81,-18.82l0 -285c0,-7.36 3,-14.01 7.81,-18.82l0.02 -0.02c4.85,-4.84 11.52,-7.82 18.84,-7.82 85.93,0 163.85,34.95 220.28,91.39 56.43,56.43 91.39,134.35 91.39,220.28 0,7.36 -3,14.01 -7.81,18.82l-0.02 0.02c-4.84,4.83 -11.52,7.82 -18.84,7.82zm-285 -13.34l285 0c3.67,0 7.02,-1.48 9.44,-3.89 2.4,-2.4 3.89,-5.74 3.89,-9.44 0,-82.26 -33.46,-156.85 -87.47,-210.86 -54.01,-54.02 -128.6,-87.47 -210.86,-87.47 -3.67,0 -7.02,1.48 -9.44,3.89 -2.4,2.4 -3.89,5.74 -3.89,9.44l0 285c0,3.71 1.5,7.05 3.89,9.44 2.42,2.4 5.76,3.89 9.44,3.89zm-80.56 379.03c-85.93,0 -163.85,-34.95 -220.28,-91.38 -56.43,-56.43 -91.38,-134.35 -91.38,-220.28 0,-85.93 34.95,-163.85 91.38,-220.29 56.43,-56.43 134.35,-91.38 220.28,-91.38 7.31,0 14,2.99 18.84,7.82l0.02 0.02c4.81,4.81 7.81,11.46 7.81,18.82l0 258.33 258.33 0c7.31,0 14,2.99 18.84,7.82l0.02 0.02c4.81,4.81 7.81,11.46 7.81,18.82 0,85.88 -34.97,163.81 -91.42,220.26 -56.43,56.43 -134.34,91.4 -220.25,91.4zm-210.86 -100.81c54.01,54.01 128.6,87.47 210.86,87.47 82.24,0 156.81,-33.48 210.83,-87.49 54.03,-54.03 87.5,-128.63 87.5,-210.84 0,-3.71 -1.5,-7.05 -3.89,-9.44 -2.42,-2.4 -5.76,-3.89 -9.44,-3.89l-265 0 -6.67 0 0 -6.67 0 -265c0,-3.71 -1.5,-7.05 -3.89,-9.44 -2.42,-2.4 -5.76,-3.89 -9.44,-3.89 -82.26,0 -156.85,33.46 -210.86,87.47 -54.01,54.02 -87.47,128.6 -87.47,210.86 0,82.26 33.46,156.85 87.47,210.86zm616.44 452.56l-51.77 0c-20.2,0 -33.17,-11.17 -38.89,-25.45l0 -0.02c-2.18,-5.47 -3.28,-11.34 -3.28,-17.16 0,-5.81 1.1,-11.69 3.28,-17.16l0 -0.02c5.71,-14.28 18.69,-25.45 38.89,-25.45l51.77 0c20.2,0 33.18,11.17 38.89,25.45l0 0.02c2.18,5.47 3.28,11.34 3.28,17.16 0,5.81 -1.1,11.69 -3.28,17.16l0 0.02c-5.71,14.28 -18.69,25.45 -38.89,25.45zm-51.77 -13.34l51.77 0c13.88,0 22.72,-7.49 26.54,-17.06l0.01 0c1.52,-3.81 2.28,-8 2.28,-12.24 0,-4.24 -0.76,-8.43 -2.28,-12.24l-0.01 0c-3.83,-9.57 -12.67,-17.06 -26.54,-17.06l-51.77 0c-13.87,0 -22.71,7.49 -26.54,17.06l-0.01 -0c-1.52,3.81 -2.28,8 -2.28,12.24 0,4.24 0.76,8.43 2.28,12.24l0.01 -0c3.83,9.57 12.67,17.06 26.54,17.06zm-98.23 13.34l-51.77 0c-20.2,0 -33.17,-11.17 -38.89,-25.45l0 -0.02c-2.18,-5.47 -3.28,-11.34 -3.28,-17.16 0,-5.81 1.1,-11.69 3.28,-17.16l0 -0.02c5.71,-14.28 18.69,-25.45 38.89,-25.45l51.77 0c20.2,0 33.17,11.17 38.89,25.45l0 0.02c2.18,5.47 3.28,11.34 3.28,17.16 0,5.81 -1.1,11.69 -3.28,17.16l0 0.02c-5.71,14.28 -18.69,25.45 -38.89,25.45zm-51.77 -13.34l51.77 0c13.87,0 22.71,-7.49 26.54,-17.06l0.01 0c1.52,-3.81 2.28,-8 2.28,-12.24 0,-4.24 -0.76,-8.43 -2.28,-12.24l-0.01 0c-3.83,-9.57 -12.67,-17.06 -26.54,-17.06l-51.77 0c-13.87,0 -22.71,7.49 -26.54,17.06l-0.01 -0c-1.52,3.81 -2.28,8 -2.28,12.24 0,4.24 0.76,8.43 2.28,12.24l0.01 -0c3.83,9.57 12.67,17.06 26.54,17.06zm-98.23 13.34l-51.77 0c-20.2,0 -33.17,-11.17 -38.89,-25.45l0 -0.02c-2.18,-5.47 -3.28,-11.34 -3.28,-17.16 0,-5.81 1.1,-11.69 3.28,-17.16l0 -0.02c5.71,-14.28 18.69,-25.45 38.89,-25.45l51.77 0c20.2,0 33.17,11.17 38.89,25.45l0 0.02c2.18,5.47 3.28,11.34 3.28,17.16 0,5.81 -1.1,11.69 -3.28,17.16l0 0.02c-5.71,14.28 -18.69,25.45 -38.89,25.45zm-51.77 -13.34l51.77 0c13.87,0 22.71,-7.49 26.54,-17.06l0.01 0c1.52,-3.81 2.28,-8 2.28,-12.24 0,-4.24 -0.76,-8.43 -2.28,-12.24l-0.01 0c-3.83,-9.57 -12.67,-17.06 -26.54,-17.06l-51.77 0c-13.87,0 -22.71,7.49 -26.54,17.06l-0.01 -0c-1.52,3.81 -2.28,8 -2.28,12.24 0,4.24 0.76,8.43 2.28,12.24l0.01 -0c3.83,9.57 12.67,17.06 26.54,17.06zm-1103.13 -199.17l1549.46 0 0 -954.93 -1549.46 0 0 954.93zm1556.13 13.34l-1562.8 0 -6.67 0 0 -6.67 0 -964.99c0,-2.64 1.04,-5.11 2.76,-6.92l0.03 -0.03c1.77,-1.85 4.21,-3 7.02,-3l1556.53 0c2.69,0 5.13,1.11 6.91,2.87l0.02 0c1.78,1.78 2.87,4.24 2.87,6.94l0 965.13 -0 6.67 -6.67 0z" id="id_103" style="fill: rgb(22, 85, 143);"></path>
 </g>
</svg>