<svg xmlns="http://www.w3.org/2000/svg" xml:space="preserve" width="2.66666in" height="2.66666in" version="1.1" style="shape-rendering:geometricPrecision; text-rendering:geometricPrecision; image-rendering:optimizeQuality; fill-rule:evenodd; clip-rule:evenodd" viewBox="0 0 2666.66 2666.66" xmlns:xlink="http://www.w3.org/1999/xlink" xmlns:xodm="http://www.corel.com/coreldraw/odm/2003">
 <defs>
  <style type="text/css">
   
    .fil0 {fill:#8D9A89}
    .fil1 {fill:white}
    .fil2 {fill:#015C55;fill-rule:nonzero}
   
  </style>
 </defs>
 <g id="Layer_x0020_1">
  <metadata id="CorelCorpID_0Corel-Layer"></metadata>
  <circle class="fil0" cx="1333.33" cy="1333.33" r="1333.33" id="id_101" style="fill: rgb(22, 85, 143);"></circle>
  <path class="fil1" d="M2058.73 2012.09l0 98.07c0,27.69 -41.97,27.53 -41.97,0l0 -98.07c0,-27.59 41.97,-27.59 41.97,0zm-576.47 -1532.09l0 128.52 418.36 0 0 -128.52 -418.36 0zm149.22 170.49l0 121.24 119.93 0 0 -121.24 -119.93 0zm163.79 1004.74l0 64.11 78.11 0 0 -64.11 -78.11 0zm0 -99.67l0 57.7 78.11 0 0 -57.7 -78.11 0zm0 -99.53l0 57.56 78.11 0 0 -57.56 -78.11 0zm0 -106.23l0 64.26 78.11 0 0 -64.26 -78.11 0zm-133.33 0l0 64.26 91.37 0 0 -64.26 -91.37 0zm0 106.23l0 57.56 91.37 0 0 -57.56 -91.37 0zm0 99.53l0 57.7 91.37 0 0 -57.7 -91.37 0zm0 99.67l0 64.11 91.37 0 0 -64.11 -91.37 0zm-133.33 0l0 64.11 91.37 0 0 -64.11 -91.37 0zm0 -99.67l0 57.7 91.37 0 0 -57.7 -91.37 0zm0 -99.53l0 57.56 91.37 0 0 -57.56 -91.37 0zm0 -106.23l0 64.26 91.37 0 0 -64.26 -91.37 0zm-120.07 305.43l0 64.11 78.11 0 0 -64.11 -78.11 0zm0 -99.67l0 57.7 78.11 0 0 -57.7 -78.11 0zm0 -205.76l0 64.26 78.11 0 0 -64.26 -78.11 0zm0 106.23l0 57.56 78.11 0 0 -57.56 -78.11 0zm0 -491.51l0 201.24 467.62 0 0 -201.24 -467.62 0zm-544.84 -171.8l0 523.86 315.48 0 0 -628.78 -315.48 0 0 104.92zm240.73 443.28l-166.12 0c-27.66,0 -27.66,-41.97 0,-41.97l166.27 0c27.7,0 27.64,41.97 -0.15,41.97zm0 -141.93l-166.12 0c-27.66,0 -27.66,-41.97 0,-41.97l166.27 0c27.7,0 27.64,41.97 -0.15,41.97zm0 -141.78l-166.12 0c-27.66,0 -27.66,-41.97 0,-41.97l166.27 0c27.7,0 27.64,41.97 -0.15,41.97zm0 -141.93l-166.12 0c-27.66,0 -27.66,-41.97 0,-41.97l166.27 0c27.7,0 27.64,41.97 -0.15,41.97zm-488.31 29.29l0 1054.13 1434.47 0 0 -1054.13c0,-14.28 -11.66,-25.94 -25.94,-25.94l-803.5 0 0 502.88 31.19 0 0 -84.52c0,-27.66 41.97,-27.66 41.97,0l0 105.5c0,11.66 -9.33,20.98 -20.98,20.98l-503.9 0c-11.66,0 -20.98,-9.47 -20.98,-20.98l0 -105.5c0,-27.66 41.97,-27.66 41.97,0l0 84.52 31.33 0 0 -502.88 -179.68 0c-14.28,0 -25.94,11.66 -25.94,25.94zm635.49 914.83l-460.33 0c-11.66,0 -20.98,-9.47 -20.98,-20.98l0 -281.24c0,-11.51 9.33,-20.98 20.98,-20.98l460.33 0c11.65,0 20.98,9.47 20.98,20.98l0 281.24c0,11.51 -9.47,20.98 -20.98,20.98zm522.69 6.85l-386.74 0c-11.51,0 -20.98,-9.47 -20.98,-20.98l0 -411.52c0,-11.65 9.47,-20.98 20.98,-20.98l506.81 0c11.52,0 20.98,9.33 20.98,20.98l0 411.51c0,11.66 -9.47,20.99 -20.98,20.99l-120.07 0zm122.99 -553.59l-509.73 0c-11.51,0 -20.98,-9.33 -20.98,-20.98l0 -243.21c0,-11.65 9.47,-20.98 20.98,-20.98l509.59 0c11.52,0 20.98,9.33 20.98,20.98l0 243.21c0.15,11.52 -9.33,20.98 -20.84,20.98zm-1085.03 265.35l0 239.42 418.36 0 0 -239.42 -418.36 0zm1053.11 539.02c0,-27.59 41.97,-27.59 41.97,0l0 98.07c0,27.76 -41.97,27.48 -41.97,0l0 -98.07zm206.19 -76.36l-1569.69 0 0 250.93 1662.96 0 0 -250.93 -93.26 0zm-315.48 76.36l0 98.07c0,27.69 -41.97,27.53 -41.97,0l0 -98.07c0,-27.59 41.97,-27.59 41.97,0zm-151.41 98.07c0,27.76 -41.97,27.48 -41.97,0l0 -98.07c0,-27.59 41.97,-27.59 41.97,0l0 98.07zm-192.79 -48.96c0,43.28 -35.27,78.54 -78.54,78.54 -43.27,0 -78.54,-35.26 -78.54,-78.54 0,-43.28 35.26,-78.54 78.54,-78.54 43.28,0 78.54,35.26 78.54,78.54zm-307.9 48.96c0,27.65 -41.97,27.6 -41.97,0l0 -98.07c0,-27.62 41.97,-27.62 41.97,0l0 98.07zm-151.41 0c0,27.72 -41.97,27.56 -41.97,0l0 -98.07c0,-27.62 41.97,-27.62 41.97,0l0 98.07zm-151.26 0c0,27.65 -41.97,27.6 -41.97,0l0 -98.07c0,-27.62 41.97,-27.62 41.97,0l0 98.07zm-151.41 0c0,27.72 -41.97,27.56 -41.97,0l0 -98.07c0,-27.62 41.97,-27.62 41.97,0l0 98.07z" id="id_102"></path>
  <path class="fil2" d="M2048.73 1995.43l0 98.07c0,13.1 -7.26,21.53 -16.57,25.25l0 0.01c-3.53,1.41 -7.31,2.12 -11.05,2.12 -3.74,0 -7.53,-0.71 -11.06,-2.12l0 -0.01c-9.33,-3.74 -16.63,-12.18 -16.63,-25.25l0 -98.07c0,-13.08 7.28,-21.5 16.6,-25.23l-0 -0.01c3.53,-1.41 7.32,-2.12 11.06,-2.12 3.74,0 7.52,0.71 11.06,2.12l-0 0.01c9.32,3.73 16.6,12.16 16.6,25.23zm-13.34 98.07l0 -98.07c0,-6.77 -3.59,-11.06 -8.18,-12.89l-0.02 0c-1.88,-0.75 -3.98,-1.13 -6.11,-1.13 -2.13,0 -4.23,0.38 -6.11,1.13l-0.02 0c-4.59,1.83 -8.18,6.12 -8.18,12.89l0 98.07c0,6.77 3.61,11.07 8.21,12.91l0.02 0c1.88,0.75 3.98,1.13 6.11,1.13 2.13,0 4.23,-0.38 6.11,-1.13l0.02 0c4.57,-1.83 8.15,-6.12 8.15,-12.91zm-563.13 -1623.5l0 115.19 405.02 0 0 -115.19 -405.02 0zm-13.34 121.85l0 -128.52 0 -6.67 6.67 0 418.36 0 6.67 0 0 6.67 0 128.52 0 6.67 -6.67 0 -418.36 0 -6.67 0 0 -6.67zm162.56 48.64l0 107.9 106.59 0 0 -107.9 -106.59 0zm-13.34 114.57l0 -121.24 0 -6.67 6.67 0 119.93 0 6.67 0 0 6.67 0 121.24 0 6.67 -6.67 0 -119.93 0 -6.67 0 0 -6.67zm177.13 890.17l0 50.78 64.77 0 0 -50.78 -64.77 0zm-13.34 57.44l0 -64.11 0 -6.67 6.67 0 78.11 0 6.67 0 0 6.67 0 64.11 0 6.67 -6.67 0 -78.11 0 -6.67 0 0 -6.67zm13.34 -157.12l0 44.37 64.77 0 0 -44.37 -64.77 0zm-13.34 51.04l0 -57.7 0 -6.67 6.67 0 78.11 0 6.67 0 0 6.67 0 57.7 0 6.67 -6.67 0 -78.11 0 -6.67 0 0 -6.67zm13.34 -150.56l0 44.22 64.77 0 0 -44.22 -64.77 0zm-13.34 50.89l0 -57.56 0 -6.67 6.67 0 78.11 0 6.67 0 0 6.67 0 57.56 0 6.67 -6.67 0 -78.11 0 -6.67 0 0 -6.67zm13.34 -157.12l0 50.93 64.77 0 0 -50.93 -64.77 0zm-13.34 57.59l0 -64.26 0 -6.67 6.67 0 78.11 0 6.67 0 0 6.67 0 64.26 0 6.67 -6.67 0 -78.11 0 -6.67 0 0 -6.67zm-120 -57.59l0 50.93 78.03 0 0 -50.93 -78.03 0zm-13.34 57.59l0 -64.26 0 -6.67 6.67 0 91.37 0 6.67 0 0 6.67 0 64.26 0 6.67 -6.67 0 -91.37 0 -6.67 0 0 -6.67zm13.34 48.64l0 44.22 78.03 0 0 -44.22 -78.03 0zm-13.34 50.89l0 -57.56 0 -6.67 6.67 0 91.37 0 6.67 0 0 6.67 0 57.56 0 6.67 -6.67 0 -91.37 0 -6.67 0 0 -6.67zm13.34 48.64l0 44.37 78.03 0 0 -44.37 -78.03 0zm-13.34 51.04l0 -57.7 0 -6.67 6.67 0 91.37 0 6.67 0 0 6.67 0 57.7 0 6.67 -6.67 0 -91.37 0 -6.67 0 0 -6.67zm13.34 48.64l0 50.78 78.03 0 0 -50.78 -78.03 0zm-13.34 57.44l0 -64.11 0 -6.67 6.67 0 91.37 0 6.67 0 0 6.67 0 64.11 0 6.67 -6.67 0 -91.37 0 -6.67 0 0 -6.67zm-120 -57.44l0 50.78 78.03 0 0 -50.78 -78.03 0zm-13.34 57.44l0 -64.11 0 -6.67 6.67 0 91.37 0 6.67 0 0 6.67 0 64.11 0 6.67 -6.67 0 -91.37 0 -6.67 0 0 -6.67zm13.34 -157.12l0 44.37 78.03 0 0 -44.37 -78.03 0zm-13.34 51.04l0 -57.7 0 -6.67 6.67 0 91.37 0 6.67 0 0 6.67 0 57.7 0 6.67 -6.67 0 -91.37 0 -6.67 0 0 -6.67zm13.34 -150.56l0 44.22 78.03 0 0 -44.22 -78.03 0zm-13.34 50.89l0 -57.56 0 -6.67 6.67 0 91.37 0 6.67 0 0 6.67 0 57.56 0 6.67 -6.67 0 -91.37 0 -6.67 0 0 -6.67zm13.34 -157.12l0 50.93 78.03 0 0 -50.93 -78.03 0zm-13.34 57.59l0 -64.26 0 -6.67 6.67 0 91.37 0 6.67 0 0 6.67 0 64.26 0 6.67 -6.67 0 -91.37 0 -6.67 0 0 -6.67zm-106.74 247.84l0 50.78 64.77 0 0 -50.78 -64.77 0zm-13.34 57.44l0 -64.11 0 -6.67 6.67 0 78.11 0 6.67 0 0 6.67 0 64.11 0 6.67 -6.67 0 -78.11 0 -6.67 0 0 -6.67zm13.34 -157.12l0 44.37 64.77 0 0 -44.37 -64.77 0zm-13.34 51.04l0 -57.7 0 -6.67 6.67 0 78.11 0 6.67 0 0 6.67 0 57.7 0 6.67 -6.67 0 -78.11 0 -6.67 0 0 -6.67zm13.34 -256.8l0 50.93 64.77 0 0 -50.93 -64.77 0zm-13.34 57.59l0 -64.26 0 -6.67 6.67 0 78.11 0 6.67 0 0 6.67 0 64.26 0 6.67 -6.67 0 -78.11 0 -6.67 0 0 -6.67zm13.34 48.64l0 44.22 64.77 0 0 -44.22 -64.77 0zm-13.34 50.89l0 -57.56 0 -6.67 6.67 0 78.11 0 6.67 0 0 6.67 0 57.56 0 6.67 -6.67 0 -78.11 0 -6.67 0 0 -6.67zm13.34 -542.4l0 187.91 454.28 0 0 -187.91 -454.28 0zm-13.34 194.57l0 -201.24 0 -6.67 6.67 0 467.62 0 6.67 0 0 6.67 0 201.24 0 6.67 -6.67 0 -467.62 0 -6.67 0 0 -6.67zm-531.5 -373.04l0 517.19 302.14 0 0 -615.44 -302.14 0 0 98.25zm-13.34 523.86l0 -523.86 0 -104.92 0 -6.67 6.67 0 315.48 0 6.67 0 0 6.67 0 628.78 0 6.67 -6.67 0 -315.48 0 -6.67 0 0 -6.67zm247.4 -73.91l-166.12 0c-13.11,0 -21.56,-7.29 -25.29,-16.6 -1.41,-3.53 -2.12,-7.32 -2.12,-11.06 0,-3.74 0.71,-7.53 2.12,-11.06 3.73,-9.31 12.18,-16.6 25.29,-16.6l166.27 0c13.11,0 21.55,7.26 25.28,16.56 1.41,3.52 2.12,7.31 2.12,11.05l-0.03 0c-0,3.78 -0.71,7.58 -2.11,11.06 -3.75,9.33 -12.24,16.64 -25.42,16.64zm-166.12 -13.34l166.12 0c6.86,0 11.21,-3.62 13.07,-8.24 0.78,-1.93 1.17,-4.03 1.17,-6.11l-0.03 0c0,-2.13 -0.38,-4.23 -1.13,-6.11 -1.84,-4.58 -6.14,-8.17 -12.94,-8.17l-166.27 0c-6.79,0 -11.1,3.6 -12.94,8.2 -0.75,1.88 -1.13,3.98 -1.13,6.11 0,2.13 0.38,4.23 1.13,6.11 1.84,4.6 6.15,8.2 12.94,8.2zm166.12 -128.59l-166.12 0c-13.11,0 -21.56,-7.29 -25.29,-16.6 -1.41,-3.53 -2.12,-7.32 -2.12,-11.06 0,-3.74 0.71,-7.53 2.12,-11.06 3.73,-9.31 12.18,-16.6 25.29,-16.6l166.27 0c13.11,0 21.55,7.26 25.28,16.56 1.41,3.52 2.12,7.31 2.12,11.05l-0.03 0c-0,3.78 -0.71,7.58 -2.11,11.06 -3.75,9.33 -12.24,16.64 -25.42,16.64zm-166.12 -13.34l166.12 0c6.86,0 11.21,-3.62 13.07,-8.24 0.78,-1.93 1.17,-4.03 1.17,-6.11l-0.03 0c0,-2.13 -0.38,-4.23 -1.13,-6.11 -1.84,-4.58 -6.14,-8.17 -12.94,-8.17l-166.27 0c-6.79,0 -11.1,3.6 -12.94,8.2 -0.75,1.88 -1.13,3.98 -1.13,6.11 0,2.13 0.38,4.23 1.13,6.11 1.84,4.6 6.15,8.2 12.94,8.2zm166.12 -128.44l-166.12 0c-13.11,0 -21.56,-7.29 -25.29,-16.6 -1.41,-3.53 -2.12,-7.32 -2.12,-11.06 0,-3.74 0.71,-7.53 2.12,-11.06 3.73,-9.31 12.18,-16.6 25.29,-16.6l166.27 0c13.11,0 21.55,7.26 25.28,16.56 1.41,3.52 2.12,7.31 2.12,11.05l-0.03 0c-0,3.78 -0.71,7.58 -2.11,11.06 -3.75,9.33 -12.24,16.64 -25.42,16.64zm-166.12 -13.34l166.12 0c6.86,0 11.21,-3.62 13.07,-8.24 0.78,-1.93 1.17,-4.03 1.17,-6.11l-0.03 0c0,-2.13 -0.38,-4.23 -1.13,-6.11 -1.84,-4.58 -6.14,-8.17 -12.94,-8.17l-166.27 0c-6.79,0 -11.1,3.6 -12.94,8.2 -0.75,1.88 -1.13,3.98 -1.13,6.11 0,2.13 0.38,4.23 1.13,6.11 1.84,4.6 6.15,8.2 12.94,8.2zm166.12 -128.59l-166.12 0c-13.11,0 -21.56,-7.29 -25.29,-16.6 -1.41,-3.53 -2.12,-7.32 -2.12,-11.06 0,-3.74 0.71,-7.53 2.12,-11.06 3.73,-9.31 12.18,-16.6 25.29,-16.6l166.27 0c13.11,0 21.55,7.26 25.28,16.56 1.41,3.52 2.12,7.31 2.12,11.05l-0.03 0c-0,3.78 -0.71,7.58 -2.11,11.06 -3.75,9.33 -12.24,16.64 -25.42,16.64zm-166.12 -13.34l166.12 0c6.86,0 11.21,-3.62 13.07,-8.24 0.78,-1.93 1.17,-4.03 1.17,-6.11l-0.03 0c0,-2.13 -0.38,-4.23 -1.13,-6.11 -1.84,-4.58 -6.14,-8.17 -12.94,-8.17l-166.27 0c-6.79,0 -11.1,3.6 -12.94,8.2 -0.75,1.88 -1.13,3.98 -1.13,6.11 0,2.13 0.38,4.23 1.13,6.11 1.84,4.6 6.15,8.2 12.94,8.2zm-315.52 35.96l0 1047.46 1421.13 0 0 -1047.46c0,-5.32 -2.16,-10.14 -5.63,-13.61l-0.02 -0.02c-3.47,-3.47 -8.29,-5.63 -13.61,-5.63l-796.83 0 0 489.54 17.85 0 0 -77.85c0,-13.11 7.29,-21.56 16.6,-25.29 3.53,-1.41 7.32,-2.12 11.06,-2.12 3.74,0 7.53,0.71 11.06,2.12 9.31,3.73 16.6,12.18 16.6,25.29l0 105.5c0,7.64 -3.08,14.54 -8.08,19.55l-0.01 0.01 -0.01 0.01c-5.01,5 -11.92,8.08 -19.55,8.08l-503.9 0c-7.65,0 -14.55,-3.11 -19.54,-8.09 -5.02,-5.02 -8.11,-11.95 -8.11,-19.56l0 -105.5c0,-13.11 7.29,-21.56 16.6,-25.29 3.53,-1.41 7.32,-2.12 11.06,-2.12 3.74,0 7.53,0.71 11.06,2.12 9.31,3.73 16.6,12.18 16.6,25.29l0 77.85 17.99 0 0 -489.54 -173.01 0c-5.32,0 -10.14,2.16 -13.61,5.63l-0.02 0.02c-3.47,3.47 -5.63,8.29 -5.63,13.61zm-13.34 1054.13l0 -1054.13c0,-8.95 3.67,-17.1 9.57,-23.01l0.01 -0.01 0.01 -0.01c5.91,-5.9 14.06,-9.57 23.01,-9.57l179.68 0 6.67 0 0 6.67 0 502.88 0 6.67 -6.67 0 -31.33 0 -6.67 0 0 -6.67 0 -84.52c0,-6.79 -3.6,-11.1 -8.2,-12.94 -1.88,-0.75 -3.98,-1.13 -6.11,-1.13 -2.13,0 -4.23,0.38 -6.11,1.13 -4.6,1.84 -8.2,6.15 -8.2,12.94l0 105.5c0,3.94 1.61,7.54 4.2,10.13 2.57,2.57 6.15,4.18 10.11,4.18l503.9 0c4,0 7.59,-1.58 10.15,-4.14l0.02 -0.02c2.56,-2.56 4.14,-6.14 4.14,-10.15l0 -105.5c0,-6.79 -3.6,-11.1 -8.2,-12.94 -1.88,-0.75 -3.98,-1.13 -6.11,-1.13 -2.13,0 -4.23,0.38 -6.11,1.13 -4.6,1.84 -8.2,6.15 -8.2,12.94l0 84.52 0 6.67 -6.67 0 -31.19 0 -6.67 0 0 -6.67 0 -502.88 0 -6.67 6.67 0 803.5 0c8.95,0 17.1,3.67 23.01,9.57l0.01 0.01 0.01 0.01c5.9,5.91 9.57,14.06 9.57,23.01l0 1054.13 0 6.67 -6.67 0 -1434.47 0 -6.67 0 0 -6.67zm642.16 -132.63l-460.33 0c-7.65,0 -14.55,-3.11 -19.54,-8.09 -5.02,-5.02 -8.11,-11.95 -8.11,-19.56l0 -281.24c0,-7.61 3.1,-14.54 8.11,-19.56 4.99,-4.99 11.89,-8.09 19.54,-8.09l460.33 0c7.65,0 14.55,3.11 19.54,8.1 5.02,5.02 8.11,11.95 8.11,19.56l0 281.24c0,7.59 -3.12,14.51 -8.13,19.52 -5.01,5.01 -11.93,8.13 -19.52,8.13zm-460.33 -13.34l460.33 0c3.92,0 7.5,-1.62 10.09,-4.22 2.6,-2.6 4.22,-6.18 4.22,-10.1l0 -281.24c0,-3.94 -1.6,-7.54 -4.2,-10.13 -2.58,-2.58 -6.15,-4.19 -10.11,-4.19l-460.33 0c-3.96,0 -7.54,1.61 -10.11,4.18 -2.59,2.59 -4.2,6.19 -4.2,10.13l0 281.24c0,3.94 1.61,7.54 4.2,10.13 2.57,2.57 6.15,4.18 10.11,4.18zm983.02 20.19l-386.74 0c-7.59,0 -14.51,-3.12 -19.52,-8.13 -5.01,-5.01 -8.13,-11.93 -8.13,-19.52l0 -411.52c0,-7.63 3.11,-14.52 8.09,-19.52l0.02 -0.02c5.02,-5.02 11.95,-8.11 19.53,-8.11l506.81 0c7.59,0 14.52,3.09 19.54,8.11l0.02 0.02c4.99,4.99 8.09,11.88 8.09,19.52l0 411.51c0,7.63 -3.11,14.53 -8.09,19.52l0 0.02c-5.02,5.02 -11.95,8.11 -19.56,8.11l-120.07 0zm-386.74 -13.34l386.74 0 120.07 0c3.94,0 7.54,-1.61 10.13,-4.2l0.01 0.01c2.57,-2.58 4.17,-6.16 4.17,-10.13l0 -411.51c0,-3.98 -1.61,-7.56 -4.18,-10.14 -2.6,-2.58 -6.19,-4.17 -10.13,-4.17l-506.81 0c-3.94,0 -7.53,1.59 -10.13,4.17 -2.57,2.58 -4.18,6.16 -4.18,10.14l0 411.52c0,3.92 1.62,7.5 4.22,10.1 2.6,2.6 6.18,4.22 10.09,4.22zm509.73 -540.25l-509.73 0c-7.61,0 -14.54,-3.1 -19.56,-8.11 -4.99,-4.99 -8.09,-11.89 -8.09,-19.54l0 -243.21c0,-7.63 3.11,-14.52 8.09,-19.52l0.02 -0.02c5.02,-5.02 11.95,-8.11 19.53,-8.11l509.59 0c7.59,0 14.52,3.09 19.54,8.11l0.02 0.02c4.99,4.99 8.09,11.88 8.09,19.52l0 243.21 0 0.26c0,7.47 -3.07,14.27 -8,19.24 -4.91,4.93 -11.7,8.03 -19.16,8.13l-0.08 0.03 -0.26 0zm-509.73 -13.34l509.73 0 0.26 0 0 0.03c3.8,-0.07 7.28,-1.68 9.81,-4.22 2.52,-2.54 4.09,-6.02 4.09,-9.86l0 -0.26 0 -243.21c0,-3.98 -1.61,-7.56 -4.18,-10.14 -2.6,-2.58 -6.19,-4.17 -10.13,-4.17l-509.59 0c-3.94,0 -7.53,1.59 -10.13,4.17 -2.57,2.58 -4.18,6.16 -4.18,10.14l0 243.21c0,3.96 1.61,7.54 4.18,10.11 2.59,2.59 6.19,4.2 10.13,4.2zm-568.63 278.69l0 226.08 405.02 0 0 -226.08 -405.02 0zm-13.34 232.75l0 -239.42 0 -6.67 6.67 0 418.36 0 6.67 0 0 6.67 0 239.42 0 6.67 -6.67 0 -418.36 0 -6.67 0 0 -6.67zm1053.11 299.6c0,-13.08 7.28,-21.5 16.6,-25.23l-0 -0.01c3.53,-1.41 7.32,-2.12 11.06,-2.12 3.74,0 7.52,0.71 11.06,2.12l-0 0.01c9.32,3.73 16.6,12.16 16.6,25.23l0 98.07c0,13.13 -7.26,21.56 -16.54,25.27 -3.48,1.39 -7.28,2.09 -11.05,2.09 -3.78,-0 -7.57,-0.7 -11.06,-2.1l0 -0.01c-9.35,-3.74 -16.66,-12.19 -16.66,-25.25l0 -98.07zm21.52 -12.89c-4.59,1.83 -8.18,6.12 -8.18,12.89l0 98.07c0,6.76 3.62,11.07 8.24,12.91l0.02 0c1.93,0.77 4.03,1.16 6.11,1.16 2.09,0 4.19,-0.38 6.11,-1.15 4.57,-1.83 8.15,-6.12 8.15,-12.93l0 -98.07c0,-6.77 -3.59,-11.06 -8.18,-12.89l-0.02 0c-1.88,-0.75 -3.98,-1.13 -6.11,-1.13 -2.13,0 -4.23,0.38 -6.11,1.13l-0.02 0zm191.34 -56.8l-1563.02 0 0 237.59 1649.62 0 0 -237.59 -86.59 0zm-1569.69 -13.34l1569.69 0 93.26 0 6.67 0 0 6.67 0 250.93 0 6.67 -6.67 0 -1662.96 0 -6.67 0 0 -6.67 0 -250.93 0 -6.67 6.67 0zm1260.88 83.03l0 98.07c0,13.1 -7.26,21.53 -16.57,25.25l0 0.01c-3.53,1.41 -7.31,2.12 -11.05,2.12 -3.74,0 -7.53,-0.71 -11.06,-2.12l0 -0.01c-9.33,-3.74 -16.63,-12.18 -16.63,-25.25l0 -98.07c0,-13.08 7.28,-21.5 16.6,-25.23l-0 -0.01c3.53,-1.41 7.32,-2.12 11.06,-2.12 3.74,0 7.52,0.71 11.06,2.12l-0 0.01c9.32,3.73 16.6,12.16 16.6,25.23zm-13.34 98.07l0 -98.07c0,-6.77 -3.59,-11.06 -8.18,-12.89l-0.02 0c-1.88,-0.75 -3.98,-1.13 -6.11,-1.13 -2.13,0 -4.23,0.38 -6.11,1.13l-0.02 0c-4.59,1.83 -8.18,6.12 -8.18,12.89l0 98.07c0,6.77 3.61,11.07 8.21,12.91l0.02 0c1.88,0.75 3.98,1.13 6.11,1.13 2.13,0 4.23,-0.38 6.11,-1.13l0.02 0c4.57,-1.83 8.15,-6.12 8.15,-12.91zm-138.07 0c0,13.13 -7.26,21.56 -16.54,25.27 -3.48,1.39 -7.28,2.09 -11.05,2.09 -3.78,-0 -7.57,-0.7 -11.06,-2.1l0 -0.01c-9.35,-3.74 -16.66,-12.19 -16.66,-25.25l0 -98.07c0,-13.08 7.28,-21.5 16.6,-25.23l-0 -0.01c3.53,-1.41 7.32,-2.12 11.06,-2.12 3.74,0 7.52,0.71 11.06,2.12l-0 0.01c9.32,3.73 16.6,12.16 16.6,25.23l0 98.07zm-21.49 12.93c4.57,-1.83 8.15,-6.12 8.15,-12.93l0 -98.07c0,-6.77 -3.59,-11.06 -8.18,-12.89l-0.02 0c-1.88,-0.75 -3.98,-1.13 -6.11,-1.13 -2.13,0 -4.23,0.38 -6.11,1.13l-0.02 0c-4.59,1.83 -8.18,6.12 -8.18,12.89l0 98.07c0,6.76 3.62,11.07 8.24,12.91l0.02 0c1.93,0.77 4.03,1.16 6.11,1.16 2.09,0 4.19,-0.38 6.11,-1.15zm-171.3 -61.89c0,23.44 -9.57,44.74 -25,60.19l-0.01 0.01 -0.01 0.01c-15.44,15.43 -36.75,25 -60.19,25 -23.44,0 -44.74,-9.57 -60.19,-25l-0.01 -0.01 -0.01 -0.01c-15.43,-15.44 -25,-36.75 -25,-60.19 0,-23.44 9.57,-44.74 25,-60.19l0.01 -0.01 0.01 -0.01c15.44,-15.43 36.74,-25 60.19,-25 23.44,0 44.74,9.57 60.19,25l0.01 0.01 0.01 0.01c15.43,15.44 25,36.75 25,60.19zm-34.4 50.79c13,-13 21.06,-30.97 21.06,-50.79 0,-19.81 -8.06,-37.79 -21.06,-50.79l-0.02 -0.02c-13,-13 -30.97,-21.06 -50.79,-21.06 -19.81,0 -37.78,8.06 -50.78,21.06l-0.02 0.02c-13,13 -21.06,30.97 -21.06,50.79 0,19.81 8.06,37.79 21.06,50.79l0.02 0.02c13,13 30.97,21.06 50.78,21.06 19.81,0 37.79,-8.06 50.79,-21.06l0.02 -0.02zm-273.5 -1.82c0,13.11 -7.28,21.54 -16.59,25.27 -3.53,1.41 -7.32,2.12 -11.06,2.12 -3.74,0 -7.53,-0.71 -11.06,-2.12 -9.32,-3.73 -16.61,-12.17 -16.61,-25.27l0 -98.07c0,-13.11 7.29,-21.54 16.6,-25.26 3.53,-1.41 7.32,-2.12 11.06,-2.12 3.74,0 7.53,0.71 11.06,2.12 9.31,3.72 16.6,12.16 16.6,25.26l0 98.07zm-21.53 12.92c4.59,-1.84 8.19,-6.14 8.19,-12.92l0 -98.07c0,-6.78 -3.61,-11.08 -8.2,-12.92 -1.88,-0.75 -3.98,-1.13 -6.11,-1.13 -2.13,0 -4.23,0.38 -6.11,1.13 -4.6,1.84 -8.2,6.14 -8.2,12.92l0 98.07c0,6.78 3.61,11.08 8.22,12.92 1.88,0.75 3.98,1.13 6.11,1.13 2.13,0 4.23,-0.38 6.11,-1.13zm-129.87 -12.92c0,13.13 -7.26,21.56 -16.57,25.28 -3.53,1.41 -7.31,2.12 -11.05,2.12 -3.74,0 -7.53,-0.71 -11.06,-2.13l0 -0.01c-9.33,-3.74 -16.63,-12.19 -16.63,-25.27l0 -98.07c0,-13.11 7.29,-21.54 16.6,-25.26 3.53,-1.41 7.32,-2.12 11.06,-2.12 3.74,0 7.53,0.71 11.06,2.12 9.31,3.72 16.6,12.16 16.6,25.26l0 98.07zm-21.51 12.94c4.59,-1.84 8.17,-6.14 8.17,-12.94l0 -98.07c0,-6.78 -3.61,-11.08 -8.2,-12.92 -1.88,-0.75 -3.98,-1.13 -6.11,-1.13 -2.13,0 -4.23,0.38 -6.11,1.13 -4.6,1.84 -8.2,6.14 -8.2,12.92l0 98.07c0,6.78 3.61,11.09 8.21,12.93l0.02 0c1.88,0.75 3.98,1.13 6.11,1.13 2.13,0 4.23,-0.38 6.11,-1.13zm-129.74 -12.94c0,13.11 -7.28,21.54 -16.59,25.27 -3.53,1.41 -7.32,2.12 -11.06,2.12 -3.74,0 -7.53,-0.71 -11.06,-2.12 -9.32,-3.73 -16.61,-12.17 -16.61,-25.27l0 -98.07c0,-13.11 7.29,-21.54 16.6,-25.26 3.53,-1.41 7.32,-2.12 11.06,-2.12 3.74,0 7.53,0.71 11.06,2.12 9.31,3.72 16.6,12.16 16.6,25.26l0 98.07zm-21.53 12.92c4.59,-1.84 8.19,-6.14 8.19,-12.92l0 -98.07c0,-6.78 -3.61,-11.08 -8.2,-12.92 -1.88,-0.75 -3.98,-1.13 -6.11,-1.13 -2.13,0 -4.23,0.38 -6.11,1.13 -4.6,1.84 -8.2,6.14 -8.2,12.92l0 98.07c0,6.78 3.61,11.08 8.22,12.92 1.88,0.75 3.98,1.13 6.11,1.13 2.13,0 4.23,-0.38 6.11,-1.13zm-129.87 -12.92c0,13.13 -7.26,21.56 -16.57,25.28 -3.53,1.41 -7.31,2.12 -11.05,2.12 -3.74,0 -7.53,-0.71 -11.06,-2.12 -9.33,-3.73 -16.63,-12.19 -16.63,-25.28l0 -98.07c0,-13.11 7.29,-21.54 16.6,-25.26 3.53,-1.41 7.32,-2.12 11.06,-2.12 3.74,0 7.53,0.71 11.06,2.12 9.31,3.72 16.6,12.16 16.6,25.26l0 98.07zm-21.51 12.93c4.59,-1.83 8.17,-6.13 8.17,-12.93l0 -98.07c0,-6.78 -3.61,-11.08 -8.2,-12.92 -1.88,-0.75 -3.98,-1.13 -6.11,-1.13 -2.13,0 -4.23,0.38 -6.11,1.13 -4.6,1.84 -8.2,6.14 -8.2,12.92l0 98.07c0,6.77 3.62,11.08 8.24,12.93 1.88,0.75 3.98,1.13 6.11,1.13 2.13,0 4.23,-0.38 6.11,-1.13z" id="id_103" style="fill: rgb(22, 85, 143);"></path>
 </g>
</svg>